<svg xmlns="http://www.w3.org/2000/svg" xmlns:xlink="http://www.w3.org/1999/xlink" width="500" zoomAndPan="magnify" viewBox="0 0 375 374.999991" height="500" preserveAspectRatio="xMidYMid meet" version="1.0"><defs><clipPath id="e909ab1c15"><path d="M 0 37.5 L 375 37.5 L 375 352.5 L 0 352.5 Z M 0 37.5 " clip-rule="nonzero"/></clipPath></defs><path fill="#ff5757" d="M 30.816406 148.988281 C 42.796875 142.085938 59.476562 148.316406 67.914062 163.078125 C 76.347656 177.839844 73.570312 195.289062 61.492188 202.191406 C 49.507812 209.089844 32.828125 202.859375 24.390625 188.097656 C 15.957031 173.335938 18.832031 155.886719 30.816406 148.988281 Z M 96.765625 101.054688 C 101.175781 125.980469 121.210938 143.332031 141.628906 139.785156 C 162.046875 136.238281 174.988281 113.039062 170.582031 88.113281 C 166.171875 63.191406 146.136719 45.839844 125.71875 49.386719 C 105.300781 52.933594 92.359375 76.035156 96.765625 101.054688 Z M 271.808594 50.824219 C 251.390625 47.277344 231.261719 64.628906 226.945312 89.550781 C 222.539062 114.476562 235.574219 137.675781 255.898438 141.222656 C 276.21875 144.769531 296.351562 127.515625 300.761719 102.492188 C 305.167969 77.472656 292.132812 54.46875 271.808594 50.824219 Z M 283.027344 230.46875 L 258.582031 206.023438 C 221.292969 168.734375 160.800781 168.734375 123.417969 206.023438 L 98.109375 231.332031 C 49.316406 280.125 101.367188 361.03125 166.074219 336.777344 L 186.492188 329.109375 C 189.847656 327.863281 193.585938 327.863281 196.941406 329.109375 L 214.964844 335.914062 C 279.574219 360.265625 331.820312 279.359375 283.027344 230.46875 Z M 360.097656 153.492188 C 348.117188 146.589844 331.4375 152.820312 323 167.582031 C 314.5625 182.25 317.34375 199.792969 329.421875 206.695312 C 341.40625 213.597656 358.085938 207.367188 366.519531 192.601562 C 374.957031 177.9375 372.082031 160.394531 360.097656 153.492188 Z M 360.097656 153.492188 " fill-opacity="1" fill-rule="nonzero"/><g clip-path="url(#e909ab1c15)"><path fill="#5670ef" d="M 183.042969 178.03125 C 207.488281 178.03125 231.933594 187.332031 250.625 206.023438 L 275.070312 230.46875 C 317.726562 273.125 283.21875 340.421875 230.683594 340.421875 C 223.113281 340.421875 215.15625 338.984375 207.007812 335.914062 L 188.984375 329.109375 C 187.261719 328.4375 185.535156 328.152344 183.714844 328.152344 C 181.988281 328.152344 180.167969 328.4375 178.441406 329.109375 L 158.023438 336.777344 C 149.875 339.847656 142.015625 341.1875 134.441406 341.1875 C 81.910156 341.1875 47.398438 273.988281 90.058594 231.234375 L 115.363281 205.929688 C 134.058594 187.332031 158.503906 178.03125 183.042969 178.03125 M 183.042969 166.625 C 154.476562 166.625 127.632812 177.746094 107.40625 197.972656 L 82.101562 223.277344 C 70.691406 234.6875 63.214844 248.683594 60.628906 263.636719 C 58.230469 277.34375 59.859375 291.628906 65.421875 304.953125 C 71.078125 318.566406 80.277344 330.261719 92.070312 338.695312 C 104.628906 347.707031 119.292969 352.5 134.535156 352.5 C 143.738281 352.5 153.039062 350.773438 162.144531 347.324219 L 182.5625 339.65625 C 182.945312 339.460938 183.328125 339.460938 183.808594 339.460938 C 184.191406 339.460938 184.671875 339.558594 185.054688 339.65625 L 203.078125 346.460938 C 212.183594 349.910156 221.578125 351.636719 230.78125 351.636719 C 246.023438 351.636719 260.691406 346.84375 273.246094 337.832031 C 285.039062 329.300781 294.242188 317.703125 299.898438 304.089844 C 305.457031 290.765625 307.085938 276.480469 304.691406 262.773438 C 302.101562 247.820312 294.625 233.824219 283.21875 222.417969 L 258.773438 197.972656 C 238.449219 177.746094 211.609375 166.625 183.042969 166.625 Z M 258.484375 49.289062 C 260.304688 49.289062 262.03125 49.484375 263.851562 49.769531 C 284.273438 53.316406 297.214844 76.515625 292.804688 101.4375 C 288.777344 124.160156 271.714844 140.648438 253.308594 140.648438 C 251.488281 140.648438 249.761719 140.453125 247.941406 140.167969 C 227.523438 136.621094 214.582031 113.421875 218.992188 88.5 C 222.921875 65.683594 239.984375 49.289062 258.484375 49.289062 M 258.484375 37.882812 C 246.503906 37.882812 234.710938 42.964844 225.316406 52.167969 C 216.304688 60.984375 210.074219 73.160156 207.773438 86.390625 C 205.1875 101.054688 207.488281 115.722656 214.292969 127.800781 C 221.484375 140.550781 232.699219 148.890625 246.023438 151.289062 C 248.417969 151.671875 250.914062 151.957031 253.40625 151.957031 C 265.386719 151.957031 277.179688 146.878906 286.574219 137.675781 C 295.582031 128.855469 301.816406 116.679688 304.113281 103.453125 C 306.703125 88.785156 304.402344 74.117188 297.597656 62.039062 C 290.40625 49.289062 279.191406 40.949219 265.867188 38.554688 C 263.375 38.074219 260.882812 37.882812 258.484375 37.882812 Z M 341.40625 150.710938 C 345.144531 150.710938 348.785156 151.574219 352.140625 153.492188 C 364.125 160.394531 367 177.9375 358.5625 192.601562 C 352.429688 203.242188 341.980469 209.476562 332.203125 209.476562 C 328.464844 209.476562 324.820312 208.613281 321.464844 206.695312 C 309.484375 199.792969 306.609375 182.25 315.042969 167.582031 C 321.179688 156.941406 331.53125 150.710938 341.40625 150.710938 M 341.40625 139.304688 C 327.121094 139.304688 313.222656 147.933594 305.167969 161.832031 C 299.800781 171.226562 297.691406 181.867188 299.320312 191.835938 C 301.046875 202.476562 307.085938 211.488281 315.714844 216.570312 C 320.601562 219.445312 326.355469 220.882812 332.105469 220.882812 C 346.390625 220.882812 360.289062 212.253906 368.34375 198.355469 C 373.710938 188.960938 375.820312 178.320312 374.191406 168.351562 C 372.464844 157.710938 366.425781 148.699219 357.796875 143.617188 C 352.910156 140.839844 347.253906 139.304688 341.40625 139.304688 Z M 123.128906 48.90625 C 141.535156 48.90625 158.597656 65.300781 162.625 88.113281 C 167.035156 113.039062 153.996094 136.238281 133.675781 139.785156 C 131.851562 140.070312 130.128906 140.261719 128.304688 140.261719 C 109.898438 140.261719 92.835938 123.871094 88.8125 101.054688 C 84.402344 76.132812 97.4375 52.933594 117.761719 49.386719 C 119.582031 49.003906 121.402344 48.90625 123.128906 48.90625 M 123.128906 37.5 C 120.636719 37.5 118.242188 37.691406 115.746094 38.171875 C 102.519531 40.472656 91.304688 48.8125 84.113281 61.5625 C 77.402344 73.640625 75.101562 88.304688 77.59375 102.972656 C 79.894531 116.203125 86.125 128.375 95.136719 137.195312 C 104.53125 146.398438 116.324219 151.480469 128.304688 151.480469 C 130.796875 151.480469 133.195312 151.289062 135.6875 150.808594 C 149.011719 148.507812 160.226562 140.167969 167.417969 127.320312 C 174.128906 115.242188 176.429688 100.578125 173.9375 85.910156 C 171.636719 72.679688 165.402344 60.507812 156.394531 51.6875 C 146.902344 42.582031 135.113281 37.5 123.128906 37.5 Z M 33.59375 146.109375 C 43.46875 146.109375 53.820312 152.339844 59.957031 162.980469 C 68.390625 177.648438 65.613281 195.191406 53.535156 202.09375 C 50.179688 204.011719 46.535156 204.875 42.796875 204.875 C 32.921875 204.875 22.570312 198.644531 16.4375 188.003906 C 8 173.335938 10.78125 155.792969 22.859375 148.890625 C 26.214844 147.070312 29.855469 146.109375 33.59375 146.109375 M 33.59375 134.800781 C 27.746094 134.800781 22.089844 136.332031 17.203125 139.113281 C 8.480469 144.097656 2.535156 153.109375 0.808594 163.84375 C -0.820312 173.71875 1.195312 184.457031 6.65625 193.753906 C 14.710938 207.652344 28.609375 216.28125 42.894531 216.28125 C 48.742188 216.28125 54.398438 214.746094 59.285156 211.96875 C 68.007812 206.984375 73.953125 197.972656 75.679688 187.234375 C 77.308594 177.265625 75.199219 166.625 69.832031 157.230469 C 61.777344 143.425781 47.878906 134.800781 33.59375 134.800781 Z M 33.59375 134.800781 " fill-opacity="1" fill-rule="nonzero"/></g></svg>