<svg xmlns="http://www.w3.org/2000/svg" xmlns:xlink="http://www.w3.org/1999/xlink" width="1920" zoomAndPan="magnify" viewBox="0 0 1440 533.249983" height="711" preserveAspectRatio="xMidYMid meet" version="1.0"><defs><g/><clipPath id="4136f63b96"><path d="M 1.011719 38.644531 L 542.699219 38.644531 L 542.699219 493.542969 L 1.011719 493.542969 Z M 1.011719 38.644531 " clip-rule="nonzero"/></clipPath></defs><path fill="#ff5757" d="M 45.542969 199.753906 C 62.859375 189.78125 86.960938 198.785156 99.152344 220.117188 C 111.34375 241.449219 107.324219 266.664062 89.871094 276.636719 C 72.554688 286.609375 48.453125 277.605469 36.261719 256.273438 C 24.070312 234.941406 28.226562 209.726562 45.542969 199.753906 Z M 140.847656 130.488281 C 147.222656 166.507812 176.175781 191.582031 205.679688 186.457031 C 235.1875 181.328125 253.886719 147.804688 247.515625 111.789062 C 241.144531 75.773438 212.191406 50.699219 182.683594 55.824219 C 153.179688 60.949219 134.476562 94.335938 140.847656 130.488281 Z M 393.800781 57.902344 C 364.292969 52.777344 335.203125 77.851562 328.96875 113.867188 C 322.597656 149.882812 341.4375 183.40625 370.804688 188.53125 C 400.171875 193.660156 429.265625 168.722656 435.636719 132.566406 C 442.007812 96.414062 423.167969 63.164062 393.800781 57.902344 Z M 410.007812 317.503906 L 374.683594 282.175781 C 320.796875 228.289062 233.386719 228.289062 179.359375 282.175781 L 142.789062 318.75 C 72.277344 389.257812 147.5 506.175781 241.003906 471.128906 L 270.511719 460.046875 C 275.359375 458.246094 280.761719 458.246094 285.609375 460.046875 L 311.652344 469.882812 C 405.019531 505.070312 480.519531 388.152344 410.007812 317.503906 Z M 521.382812 206.265625 C 504.070312 196.289062 479.964844 205.296875 467.773438 226.628906 C 455.582031 247.824219 459.601562 273.171875 477.054688 283.148438 C 494.371094 293.121094 518.476562 284.117188 530.664062 262.785156 C 542.855469 241.589844 538.699219 216.238281 521.382812 206.265625 Z M 521.382812 206.265625 " fill-opacity="1" fill-rule="nonzero"/><g clip-path="url(#4136f63b96)"><path fill="#5670ef" d="M 265.523438 241.726562 C 300.847656 241.726562 336.171875 255.164062 363.1875 282.179688 L 398.511719 317.503906 C 460.15625 379.148438 410.285156 476.394531 334.371094 476.394531 C 323.429688 476.394531 311.929688 474.316406 300.15625 469.882812 L 274.113281 460.046875 C 271.621094 459.078125 269.125 458.660156 266.492188 458.660156 C 264 458.660156 261.367188 459.078125 258.875 460.046875 L 229.367188 471.128906 C 217.59375 475.5625 206.234375 477.5 195.289062 477.5 C 119.378906 477.5 69.507812 380.394531 131.152344 318.609375 L 167.722656 282.039062 C 194.738281 255.164062 230.0625 241.726562 265.523438 241.726562 M 265.523438 225.242188 C 224.242188 225.242188 185.457031 241.3125 156.226562 270.542969 L 119.65625 307.113281 C 103.171875 323.597656 92.363281 343.824219 88.625 365.433594 C 85.160156 385.242188 87.515625 405.882812 95.550781 425.136719 C 103.722656 444.808594 117.023438 461.710938 134.0625 473.898438 C 152.207031 486.921875 173.402344 493.847656 195.429688 493.847656 C 208.726562 493.847656 222.164062 491.355469 235.324219 486.367188 L 264.832031 475.285156 C 265.386719 475.007812 265.941406 475.007812 266.632812 475.007812 C 267.1875 475.007812 267.878906 475.148438 268.433594 475.285156 L 294.476562 485.121094 C 307.636719 490.109375 321.210938 492.601562 334.511719 492.601562 C 356.535156 492.601562 377.730469 485.675781 395.878906 472.652344 C 412.917969 460.324219 426.214844 443.5625 434.390625 423.890625 C 442.421875 404.636719 444.777344 383.996094 441.316406 364.1875 C 437.574219 342.574219 426.769531 322.351562 410.285156 305.867188 L 374.960938 270.542969 C 345.59375 241.3125 306.804688 225.242188 265.523438 225.242188 Z M 374.546875 55.683594 C 377.175781 55.683594 379.671875 55.960938 382.304688 56.378906 C 411.808594 61.503906 430.511719 95.027344 424.136719 131.042969 C 418.320312 163.875 393.664062 187.703125 367.066406 187.703125 C 364.433594 187.703125 361.9375 187.425781 359.308594 187.007812 C 329.800781 181.882812 311.101562 148.359375 317.472656 112.34375 C 323.152344 79.375 347.808594 55.683594 374.546875 55.683594 M 374.546875 39.199219 C 357.230469 39.199219 340.191406 46.542969 326.613281 59.839844 C 313.59375 72.585938 304.589844 90.179688 301.265625 109.296875 C 297.523438 130.488281 300.847656 151.683594 310.683594 169.140625 C 321.074219 187.5625 337.28125 199.617188 356.535156 203.078125 C 360 203.632812 363.601562 204.046875 367.203125 204.046875 C 384.519531 204.046875 401.558594 196.707031 415.132812 183.40625 C 428.15625 170.664062 437.160156 153.070312 440.484375 133.953125 C 444.226562 112.757812 440.898438 91.5625 431.066406 74.109375 C 420.675781 55.683594 404.46875 43.632812 385.210938 40.171875 C 381.609375 39.476562 378.007812 39.199219 374.546875 39.199219 Z M 494.371094 202.246094 C 499.773438 202.246094 505.039062 203.492188 509.886719 206.265625 C 527.203125 216.238281 531.359375 241.589844 519.167969 262.785156 C 510.300781 278.160156 495.203125 287.164062 481.074219 287.164062 C 475.671875 287.164062 470.40625 285.917969 465.558594 283.148438 C 448.242188 273.171875 444.085938 247.824219 456.277344 226.628906 C 465.140625 211.25 480.101562 202.246094 494.371094 202.246094 M 494.371094 185.761719 C 473.730469 185.761719 453.644531 198.230469 442.007812 218.316406 C 434.25 231.890625 431.203125 247.269531 433.558594 261.675781 C 436.050781 277.050781 444.777344 290.074219 457.246094 297.414062 C 464.3125 301.570312 472.621094 303.648438 480.933594 303.648438 C 501.574219 303.648438 521.660156 291.183594 533.296875 271.09375 C 541.054688 257.519531 544.101562 242.144531 541.746094 227.738281 C 539.253906 212.359375 530.527344 199.339844 518.058594 191.996094 C 510.996094 187.980469 502.820312 185.761719 494.371094 185.761719 Z M 178.945312 55.132812 C 205.542969 55.132812 230.199219 78.820312 236.019531 111.789062 C 242.390625 147.804688 223.550781 181.328125 194.183594 186.457031 C 191.550781 186.871094 189.058594 187.148438 186.425781 187.148438 C 159.828125 187.148438 135.167969 163.460938 129.351562 130.488281 C 122.980469 94.472656 141.820312 60.949219 171.1875 55.824219 C 173.820312 55.269531 176.449219 55.132812 178.945312 55.132812 M 178.945312 38.644531 C 175.34375 38.644531 171.878906 38.921875 168.277344 39.617188 C 149.160156 42.941406 132.953125 54.992188 122.5625 73.417969 C 112.867188 90.871094 109.542969 112.066406 113.144531 133.261719 C 116.46875 152.378906 125.472656 169.96875 138.496094 182.714844 C 152.070312 196.011719 169.109375 203.355469 186.425781 203.355469 C 190.027344 203.355469 193.488281 203.078125 197.089844 202.386719 C 216.347656 199.0625 232.554688 187.007812 242.945312 168.445312 C 252.640625 150.992188 255.964844 129.796875 252.363281 108.601562 C 249.039062 89.484375 240.035156 71.894531 227.011719 59.148438 C 213.300781 45.988281 196.261719 38.644531 178.945312 38.644531 Z M 49.558594 195.597656 C 63.828125 195.597656 78.789062 204.601562 87.65625 219.980469 C 99.84375 241.171875 95.828125 266.523438 78.375 276.5 C 73.523438 279.269531 68.261719 280.515625 62.859375 280.515625 C 48.589844 280.515625 33.628906 271.511719 24.761719 256.132812 C 12.574219 234.941406 16.589844 209.589844 34.042969 199.617188 C 38.894531 196.984375 44.15625 195.597656 49.558594 195.597656 M 49.558594 179.25 C 41.109375 179.25 32.9375 181.46875 25.871094 185.484375 C 13.265625 192.6875 4.675781 205.710938 2.183594 221.226562 C -0.171875 235.492188 2.738281 251.007812 10.632812 264.445312 C 22.269531 284.53125 42.355469 297 62.996094 297 C 71.445312 297 79.621094 294.785156 86.683594 290.765625 C 99.292969 283.5625 107.878906 270.542969 110.375 255.027344 C 112.726562 240.621094 109.679688 225.242188 101.921875 211.667969 C 90.285156 191.71875 70.199219 179.25 49.558594 179.25 Z M 49.558594 179.25 " fill-opacity="1" fill-rule="nonzero"/></g><g fill="#ff5757" fill-opacity="1"><g transform="translate(598.503587, 240.213285)"><g><path d="M 93.96875 -28.734375 C 81.300781 -56.898438 71.46875 -79.101562 64.46875 -95.34375 C 57.476562 -111.59375 50.648438 -128.710938 43.984375 -146.703125 L 43.734375 -135.703125 C 42.234375 -86.890625 41.316406 -52.066406 40.984375 -31.234375 C 40.984375 -28.734375 40.898438 -26.898438 40.734375 -25.734375 C 40.734375 -20.078125 40.484375 -14.832031 39.984375 -10 L 58.734375 -11 L 58.734375 0 L 11 0 L 11 -8.25 C 18 -8.414062 22.535156 -10.375 24.609375 -14.125 C 26.691406 -17.875 27.898438 -23.578125 28.234375 -31.234375 L 33.734375 -164.953125 L 15.75 -164.203125 L 15.75 -174.9375 L 53.984375 -174.9375 L 87.96875 -96.46875 C 100.300781 -67.476562 109.800781 -45.484375 116.46875 -30.484375 L 116.96875 -30.484375 C 118.96875 -35.484375 123.210938 -46.234375 129.703125 -62.734375 C 136.035156 -78.722656 143.285156 -96.300781 151.453125 -115.46875 C 160.953125 -137.789062 169.113281 -157.613281 175.9375 -174.9375 L 212.9375 -174.9375 L 212.9375 -166.703125 C 206.9375 -166.867188 202.519531 -165.242188 199.6875 -161.828125 C 196.851562 -158.410156 195.4375 -152.617188 195.4375 -144.453125 L 195.6875 -139.453125 L 202.1875 -25.734375 C 202.519531 -21.910156 202.6875 -16.75 202.6875 -10.25 L 220.9375 -11 L 220.9375 0 L 164.953125 0 L 164.953125 -8.25 C 171.453125 -8.414062 175.863281 -10.289062 178.1875 -13.875 C 180.519531 -17.457031 181.6875 -23.078125 181.6875 -30.734375 C 181.6875 -33.898438 181.601562 -36.316406 181.4375 -37.984375 L 174.9375 -144.453125 C 174.613281 -143.617188 174.160156 -142.535156 173.578125 -141.203125 C 172.992188 -139.867188 172.367188 -138.285156 171.703125 -136.453125 L 115.46875 2.5 L 107.96875 2.5 Z M 93.96875 -28.734375 "/></g></g></g><g fill="#ff5757" fill-opacity="1"><g transform="translate(827.932974, 240.213285)"><g><path d="M 45.984375 4 C 33.816406 4 24.523438 1.25 18.109375 -4.25 C 11.703125 -9.75 8.5 -16.910156 8.5 -25.734375 C 8.5 -35.398438 12.367188 -43.566406 20.109375 -50.234375 C 27.859375 -56.898438 37.609375 -61.859375 49.359375 -65.109375 C 61.109375 -68.359375 72.894531 -69.898438 84.71875 -69.734375 L 84.71875 -85.21875 C 84.71875 -96.050781 83.132812 -104.507812 79.96875 -110.59375 C 76.800781 -116.675781 70.054688 -119.71875 59.734375 -119.71875 C 54.566406 -119.71875 49.648438 -118.632812 44.984375 -116.46875 C 40.316406 -114.300781 36.898438 -111.050781 34.734375 -106.71875 C 36.898438 -104.382812 37.984375 -101.21875 37.984375 -97.21875 C 37.984375 -94.71875 37.066406 -92.34375 35.234375 -90.09375 C 33.398438 -87.84375 30.734375 -86.71875 27.234375 -86.71875 C 23.742188 -86.71875 21 -87.84375 19 -90.09375 C 17 -92.34375 16 -95.300781 16 -98.96875 C 16 -104.46875 18.117188 -109.507812 22.359375 -114.09375 C 26.609375 -118.675781 32.523438 -122.296875 40.109375 -124.953125 C 47.691406 -127.617188 56.148438 -128.953125 65.484375 -128.953125 C 79.472656 -128.953125 89.800781 -125.242188 96.46875 -117.828125 C 103.132812 -110.421875 106.382812 -98.71875 106.21875 -82.71875 L 105.96875 -26.484375 C 105.96875 -21.160156 105.632812 -15.5 104.96875 -9.5 L 122.71875 -10.5 L 122.71875 0 L 86.96875 0 C 86.46875 -2.5 85.882812 -7.25 85.21875 -14.25 C 73.0625 -2.082031 59.984375 4 45.984375 4 Z M 51.734375 -10.25 C 58.066406 -10.25 63.8125 -11.457031 68.96875 -13.875 C 74.132812 -16.289062 79.382812 -19.992188 84.71875 -24.984375 C 84.550781 -27.484375 84.46875 -31.734375 84.46875 -37.734375 L 84.71875 -61.234375 C 71.0625 -60.734375 58.898438 -57.941406 48.234375 -52.859375 C 37.566406 -47.773438 32.234375 -39.984375 32.234375 -29.484375 C 32.234375 -23.328125 34.066406 -18.582031 37.734375 -15.25 C 41.398438 -11.914062 46.066406 -10.25 51.734375 -10.25 Z M 51.734375 -10.25 "/></g></g></g><g fill="#ff5757" fill-opacity="1"><g transform="translate(956.893261, 240.213285)"><g><path d="M 8.5 -7.5 C 13.332031 -7.5 16.789062 -8.707031 18.875 -11.125 C 20.957031 -13.539062 22.207031 -16.617188 22.625 -20.359375 C 23.039062 -24.109375 23.25 -29.984375 23.25 -37.984375 L 23.25 -156.203125 C 23.25 -162.535156 23.5 -167.953125 24 -172.453125 L 6.25 -171.453125 L 6.25 -181.9375 C 16.25 -181.9375 23.367188 -182.519531 27.609375 -183.6875 C 31.859375 -184.851562 35.148438 -186.519531 37.484375 -188.6875 L 44.734375 -188.6875 L 44.984375 -26.484375 C 44.984375 -19.992188 44.566406 -14.332031 43.734375 -9.5 L 59.484375 -10.25 L 59.484375 0 L 8.5 0 Z M 8.5 -7.5 "/></g></g></g><g fill="#ff5757" fill-opacity="1"><g transform="translate(1024.872322, 240.213285)"><g><path d="M 8.5 -7.5 C 13.332031 -7.5 16.789062 -8.707031 18.875 -11.125 C 20.957031 -13.539062 22.207031 -16.617188 22.625 -20.359375 C 23.039062 -24.109375 23.25 -29.984375 23.25 -37.984375 L 23.25 -156.203125 C 23.25 -162.535156 23.5 -167.953125 24 -172.453125 L 6.25 -171.453125 L 6.25 -181.9375 C 16.25 -181.9375 23.367188 -182.519531 27.609375 -183.6875 C 31.859375 -184.851562 35.148438 -186.519531 37.484375 -188.6875 L 44.734375 -188.6875 L 44.984375 -26.484375 C 44.984375 -19.992188 44.566406 -14.332031 43.734375 -9.5 L 59.484375 -10.25 L 59.484375 0 L 8.5 0 Z M 8.5 -7.5 "/></g></g></g><g fill="#ff5757" fill-opacity="1"><g transform="translate(1092.851383, 240.213285)"><g><path d="M 45.984375 4 C 33.816406 4 24.523438 1.25 18.109375 -4.25 C 11.703125 -9.75 8.5 -16.910156 8.5 -25.734375 C 8.5 -35.398438 12.367188 -43.566406 20.109375 -50.234375 C 27.859375 -56.898438 37.609375 -61.859375 49.359375 -65.109375 C 61.109375 -68.359375 72.894531 -69.898438 84.71875 -69.734375 L 84.71875 -85.21875 C 84.71875 -96.050781 83.132812 -104.507812 79.96875 -110.59375 C 76.800781 -116.675781 70.054688 -119.71875 59.734375 -119.71875 C 54.566406 -119.71875 49.648438 -118.632812 44.984375 -116.46875 C 40.316406 -114.300781 36.898438 -111.050781 34.734375 -106.71875 C 36.898438 -104.382812 37.984375 -101.21875 37.984375 -97.21875 C 37.984375 -94.71875 37.066406 -92.34375 35.234375 -90.09375 C 33.398438 -87.84375 30.734375 -86.71875 27.234375 -86.71875 C 23.742188 -86.71875 21 -87.84375 19 -90.09375 C 17 -92.34375 16 -95.300781 16 -98.96875 C 16 -104.46875 18.117188 -109.507812 22.359375 -114.09375 C 26.609375 -118.675781 32.523438 -122.296875 40.109375 -124.953125 C 47.691406 -127.617188 56.148438 -128.953125 65.484375 -128.953125 C 79.472656 -128.953125 89.800781 -125.242188 96.46875 -117.828125 C 103.132812 -110.421875 106.382812 -98.71875 106.21875 -82.71875 L 105.96875 -26.484375 C 105.96875 -21.160156 105.632812 -15.5 104.96875 -9.5 L 122.71875 -10.5 L 122.71875 0 L 86.96875 0 C 86.46875 -2.5 85.882812 -7.25 85.21875 -14.25 C 73.0625 -2.082031 59.984375 4 45.984375 4 Z M 51.734375 -10.25 C 58.066406 -10.25 63.8125 -11.457031 68.96875 -13.875 C 74.132812 -16.289062 79.382812 -19.992188 84.71875 -24.984375 C 84.550781 -27.484375 84.46875 -31.734375 84.46875 -37.734375 L 84.71875 -61.234375 C 71.0625 -60.734375 58.898438 -57.941406 48.234375 -52.859375 C 37.566406 -47.773438 32.234375 -39.984375 32.234375 -29.484375 C 32.234375 -23.328125 34.066406 -18.582031 37.734375 -15.25 C 41.398438 -11.914062 46.066406 -10.25 51.734375 -10.25 Z M 51.734375 -10.25 "/></g></g></g><g fill="#ff5757" fill-opacity="1"><g transform="translate(1221.81167, 240.213285)"><g><path d="M 62.234375 4 C 54.398438 4 47.234375 2.957031 40.734375 0.875 C 34.234375 -1.207031 28.65625 -3.832031 24 -7 L 24.984375 1.75 L 14.5 1.75 L 13 -41.234375 L 20.75 -41.234375 C 21.082031 -34.398438 22.953125 -28.316406 26.359375 -22.984375 C 29.773438 -17.660156 34.273438 -13.457031 39.859375 -10.375 C 45.441406 -7.289062 51.398438 -5.75 57.734375 -5.75 C 64.898438 -5.75 71.269531 -7.457031 76.84375 -10.875 C 82.425781 -14.289062 85.21875 -19.160156 85.21875 -25.484375 C 85.21875 -30.148438 83.84375 -34.066406 81.09375 -37.234375 C 78.34375 -40.398438 74.925781 -43.023438 70.84375 -45.109375 C 66.769531 -47.191406 61.066406 -49.648438 53.734375 -52.484375 C 44.898438 -55.816406 37.816406 -58.941406 32.484375 -61.859375 C 27.160156 -64.773438 22.582031 -68.726562 18.75 -73.71875 C 14.914062 -78.71875 13 -85.050781 13 -92.71875 C 13 -98.21875 14.332031 -103.71875 17 -109.21875 C 19.664062 -114.71875 24.160156 -119.378906 30.484375 -123.203125 C 36.816406 -127.035156 45.234375 -128.953125 55.734375 -128.953125 C 60.898438 -128.953125 66.1875 -128.117188 71.59375 -126.453125 C 77.007812 -124.796875 82.050781 -122.050781 86.71875 -118.21875 L 86.21875 -127.703125 L 96.71875 -127.703125 L 96.71875 -83.96875 L 88.71875 -83.96875 C 88.21875 -93.632812 85.257812 -102.007812 79.84375 -109.09375 C 74.4375 -116.175781 66.816406 -119.71875 56.984375 -119.71875 C 49.484375 -119.71875 43.523438 -117.84375 39.109375 -114.09375 C 34.691406 -110.34375 32.484375 -105.882812 32.484375 -100.71875 C 32.484375 -95.882812 33.941406 -91.800781 36.859375 -88.46875 C 39.773438 -85.132812 43.398438 -82.300781 47.734375 -79.96875 C 52.066406 -77.632812 57.898438 -75.054688 65.234375 -72.234375 C 73.890625 -68.734375 80.882812 -65.484375 86.21875 -62.484375 C 91.550781 -59.484375 96.09375 -55.523438 99.84375 -50.609375 C 103.59375 -45.691406 105.46875 -39.734375 105.46875 -32.734375 C 105.46875 -24.742188 103.425781 -18 99.34375 -12.5 C 95.257812 -7 89.925781 -2.875 83.34375 -0.125 C 76.769531 2.625 69.734375 4 62.234375 4 Z M 62.234375 4 "/></g></g></g><g fill="#5670ef" fill-opacity="1"><g transform="translate(512.047066, 467.893044)"><g><path d="M -1.65625 -9.09375 C 2.9375 -9.09375 6.609375 -10.144531 9.359375 -12.25 C 12.117188 -14.363281 14.367188 -17.117188 16.109375 -20.515625 C 17.859375 -23.910156 19.925781 -29.007812 22.3125 -35.8125 L 25.0625 -43.515625 L 81.796875 -198.03125 L 88.40625 -198.03125 L 149.828125 -41.3125 C 151.847656 -36.351562 153.59375 -30.984375 155.0625 -25.203125 C 156.53125 -19.421875 157.171875 -14.691406 156.984375 -11.015625 L 175.71875 -12.125 L 175.71875 0 L 112.640625 0 L 112.640625 -9.09375 C 123.472656 -9.269531 128.890625 -13.675781 128.890625 -22.3125 C 128.890625 -25.800781 127.972656 -30.113281 126.140625 -35.25 L 116.5 -61.140625 L 44.890625 -59.484375 C 42.140625 -51.960938 38.925781 -42.140625 35.25 -30.015625 C 33.414062 -23.960938 31.125 -17.628906 28.375 -11.015625 L 49.84375 -12.125 L 49.84375 0 L -1.65625 0 Z M 112.640625 -71.328125 L 93.09375 -123.9375 L 80.703125 -157.8125 L 80.140625 -157.8125 L 68.578125 -126.6875 L 53.703125 -84.828125 L 49.03125 -71.328125 Z M 112.640625 -71.328125 "/></g></g></g><g fill="#5670ef" fill-opacity="1"><g transform="translate(684.462896, 467.893044)"><g><path d="M 63.890625 4.40625 C 38.742188 4.40625 26.257812 -12.484375 26.4375 -46.265625 L 26.984375 -126.140625 L 5.78125 -125.875 L 5.78125 -137.703125 C 14.59375 -137.890625 22.070312 -141.882812 28.21875 -149.6875 C 34.375 -157.488281 38.921875 -166.347656 41.859375 -176.265625 L 51.234375 -176.265625 L 51.234375 -137.703125 L 97.5 -137.703125 L 97.5 -126.96875 L 51.234375 -126.421875 C 51.046875 -98.328125 50.90625 -78.863281 50.8125 -68.03125 C 50.71875 -57.195312 50.671875 -51.132812 50.671875 -49.84375 C 50.671875 -36.8125 52.234375 -27.128906 55.359375 -20.796875 C 58.484375 -14.460938 63.898438 -11.296875 71.609375 -11.296875 C 76.378906 -11.296875 81.101562 -12.765625 85.78125 -15.703125 C 90.46875 -18.640625 94.554688 -22.675781 98.046875 -27.8125 L 105.484375 -21.765625 C 98.328125 -11.109375 91.257812 -4.082031 84.28125 -0.6875 C 77.300781 2.707031 70.503906 4.40625 63.890625 4.40625 Z M 63.890625 4.40625 "/></g></g></g><g fill="#5670ef" fill-opacity="1"><g transform="translate(791.052247, 467.893044)"><g><path d="M 9.359375 -8.265625 C 14.691406 -8.265625 18.503906 -9.59375 20.796875 -12.25 C 23.085938 -14.914062 24.460938 -18.3125 24.921875 -22.4375 C 25.378906 -26.570312 25.609375 -33.046875 25.609375 -41.859375 L 25.609375 -172.140625 C 25.609375 -179.117188 25.882812 -185.085938 26.4375 -190.046875 L 6.890625 -188.9375 L 6.890625 -200.5 C 17.898438 -200.5 25.742188 -201.140625 30.421875 -202.421875 C 35.109375 -203.710938 38.738281 -205.550781 41.3125 -207.9375 L 49.296875 -207.9375 L 49.578125 -29.1875 C 49.578125 -22.03125 49.117188 -15.789062 48.203125 -10.46875 L 65.546875 -11.296875 L 65.546875 0 L 9.359375 0 Z M 9.359375 -8.265625 "/></g></g></g><g fill="#5670ef" fill-opacity="1"><g transform="translate(865.967749, 467.893044)"><g><path d="M 50.671875 4.40625 C 37.273438 4.40625 27.039062 1.378906 19.96875 -4.671875 C 12.894531 -10.734375 9.359375 -18.632812 9.359375 -28.375 C 9.359375 -39.019531 13.628906 -48.015625 22.171875 -55.359375 C 30.710938 -62.703125 41.453125 -68.164062 54.390625 -71.75 C 67.335938 -75.332031 80.332031 -77.03125 93.375 -76.84375 L 93.375 -93.921875 C 93.375 -105.859375 91.628906 -115.175781 88.140625 -121.875 C 84.648438 -128.570312 77.210938 -131.921875 65.828125 -131.921875 C 60.128906 -131.921875 54.707031 -130.726562 49.5625 -128.34375 C 44.425781 -125.957031 40.664062 -122.378906 38.28125 -117.609375 C 40.664062 -115.035156 41.859375 -111.546875 41.859375 -107.140625 C 41.859375 -104.378906 40.847656 -101.757812 38.828125 -99.28125 C 36.816406 -96.8125 33.878906 -95.578125 30.015625 -95.578125 C 26.160156 -95.578125 23.128906 -96.8125 20.921875 -99.28125 C 18.722656 -101.757812 17.625 -105.019531 17.625 -109.0625 C 17.625 -115.125 19.960938 -120.675781 24.640625 -125.71875 C 29.328125 -130.769531 35.847656 -134.765625 44.203125 -137.703125 C 52.554688 -140.648438 61.875 -142.125 72.15625 -142.125 C 87.582031 -142.125 98.96875 -138.035156 106.3125 -129.859375 C 113.65625 -121.691406 117.234375 -108.796875 117.046875 -91.171875 L 116.78125 -29.1875 C 116.78125 -23.3125 116.410156 -17.070312 115.671875 -10.46875 L 135.234375 -11.5625 L 135.234375 0 L 95.84375 0 C 95.289062 -2.75 94.648438 -7.984375 93.921875 -15.703125 C 80.515625 -2.296875 66.097656 4.40625 50.671875 4.40625 Z M 57.015625 -11.296875 C 63.992188 -11.296875 70.328125 -12.625 76.015625 -15.28125 C 81.703125 -17.945312 87.488281 -22.035156 93.375 -27.546875 C 93.1875 -30.296875 93.09375 -34.976562 93.09375 -41.59375 L 93.375 -67.484375 C 78.3125 -66.929688 64.90625 -63.851562 53.15625 -58.25 C 41.40625 -52.644531 35.53125 -44.0625 35.53125 -32.5 C 35.53125 -25.707031 37.546875 -20.472656 41.578125 -16.796875 C 45.617188 -13.128906 50.765625 -11.296875 57.015625 -11.296875 Z M 57.015625 -11.296875 "/></g></g></g><g fill="#5670ef" fill-opacity="1"><g transform="translate(1008.086855, 467.893044)"><g><path d="M 12.125 -8.265625 C 17.445312 -8.265625 21.253906 -9.59375 23.546875 -12.25 C 25.835938 -14.914062 27.164062 -18.222656 27.53125 -22.171875 C 27.90625 -26.117188 28.1875 -32.679688 28.375 -41.859375 L 28.640625 -104.65625 C 28.640625 -112.375 29.007812 -118.34375 29.75 -122.5625 L 10.1875 -121.46875 L 10.1875 -133.03125 C 21.019531 -133.03125 28.457031 -133.625 32.5 -134.8125 C 36.539062 -136.007812 39.9375 -137.894531 42.6875 -140.46875 L 50.671875 -140.46875 C 51.046875 -136.976562 51.414062 -131.378906 51.78125 -123.671875 C 58.019531 -129.171875 65.132812 -133.617188 73.125 -137.015625 C 81.113281 -140.421875 88.960938 -142.125 96.671875 -142.125 C 112.648438 -142.125 124.3125 -137.117188 131.65625 -127.109375 C 139 -117.097656 142.671875 -101.535156 142.671875 -80.421875 L 142.671875 -29.1875 C 142.671875 -20.925781 142.300781 -14.6875 141.5625 -10.46875 L 158.921875 -11.296875 L 158.921875 0 L 102.734375 0 L 102.734375 -8.265625 C 108.054688 -8.265625 111.863281 -9.59375 114.15625 -12.25 C 116.457031 -14.914062 117.835938 -18.3125 118.296875 -22.4375 C 118.753906 -26.570312 118.984375 -33.046875 118.984375 -41.859375 L 118.984375 -80.421875 C 118.796875 -96.210938 116.222656 -108.101562 111.265625 -116.09375 C 106.304688 -124.082031 98.503906 -128.078125 87.859375 -128.078125 C 81.242188 -128.078125 74.675781 -126.421875 68.15625 -123.109375 C 61.644531 -119.804688 56.28125 -115.492188 52.0625 -110.171875 C 52.238281 -108.148438 52.328125 -104.566406 52.328125 -99.421875 L 52.0625 -29.1875 C 52.0625 -20.925781 51.691406 -14.6875 50.953125 -10.46875 L 68.296875 -11.296875 L 68.296875 0 L 12.125 0 Z M 12.125 -8.265625 "/></g></g></g><g fill="#5670ef" fill-opacity="1"><g transform="translate(1175.269615, 467.893044)"><g><path d="M 63.890625 4.40625 C 38.742188 4.40625 26.257812 -12.484375 26.4375 -46.265625 L 26.984375 -126.140625 L 5.78125 -125.875 L 5.78125 -137.703125 C 14.59375 -137.890625 22.070312 -141.882812 28.21875 -149.6875 C 34.375 -157.488281 38.921875 -166.347656 41.859375 -176.265625 L 51.234375 -176.265625 L 51.234375 -137.703125 L 97.5 -137.703125 L 97.5 -126.96875 L 51.234375 -126.421875 C 51.046875 -98.328125 50.90625 -78.863281 50.8125 -68.03125 C 50.71875 -57.195312 50.671875 -51.132812 50.671875 -49.84375 C 50.671875 -36.8125 52.234375 -27.128906 55.359375 -20.796875 C 58.484375 -14.460938 63.898438 -11.296875 71.609375 -11.296875 C 76.378906 -11.296875 81.101562 -12.765625 85.78125 -15.703125 C 90.46875 -18.640625 94.554688 -22.675781 98.046875 -27.8125 L 105.484375 -21.765625 C 98.328125 -11.109375 91.257812 -4.082031 84.28125 -0.6875 C 77.300781 2.707031 70.503906 4.40625 63.890625 4.40625 Z M 63.890625 4.40625 "/></g></g></g><g fill="#5670ef" fill-opacity="1"><g transform="translate(1281.85892, 467.893044)"><g><path d="M 50.671875 4.40625 C 37.273438 4.40625 27.039062 1.378906 19.96875 -4.671875 C 12.894531 -10.734375 9.359375 -18.632812 9.359375 -28.375 C 9.359375 -39.019531 13.628906 -48.015625 22.171875 -55.359375 C 30.710938 -62.703125 41.453125 -68.164062 54.390625 -71.75 C 67.335938 -75.332031 80.332031 -77.03125 93.375 -76.84375 L 93.375 -93.921875 C 93.375 -105.859375 91.628906 -115.175781 88.140625 -121.875 C 84.648438 -128.570312 77.210938 -131.921875 65.828125 -131.921875 C 60.128906 -131.921875 54.707031 -130.726562 49.5625 -128.34375 C 44.425781 -125.957031 40.664062 -122.378906 38.28125 -117.609375 C 40.664062 -115.035156 41.859375 -111.546875 41.859375 -107.140625 C 41.859375 -104.378906 40.847656 -101.757812 38.828125 -99.28125 C 36.816406 -96.8125 33.878906 -95.578125 30.015625 -95.578125 C 26.160156 -95.578125 23.128906 -96.8125 20.921875 -99.28125 C 18.722656 -101.757812 17.625 -105.019531 17.625 -109.0625 C 17.625 -115.125 19.960938 -120.675781 24.640625 -125.71875 C 29.328125 -130.769531 35.847656 -134.765625 44.203125 -137.703125 C 52.554688 -140.648438 61.875 -142.125 72.15625 -142.125 C 87.582031 -142.125 98.96875 -138.035156 106.3125 -129.859375 C 113.65625 -121.691406 117.234375 -108.796875 117.046875 -91.171875 L 116.78125 -29.1875 C 116.78125 -23.3125 116.410156 -17.070312 115.671875 -10.46875 L 135.234375 -11.5625 L 135.234375 0 L 95.84375 0 C 95.289062 -2.75 94.648438 -7.984375 93.921875 -15.703125 C 80.515625 -2.296875 66.097656 4.40625 50.671875 4.40625 Z M 57.015625 -11.296875 C 63.992188 -11.296875 70.328125 -12.625 76.015625 -15.28125 C 81.703125 -17.945312 87.488281 -22.035156 93.375 -27.546875 C 93.1875 -30.296875 93.09375 -34.976562 93.09375 -41.59375 L 93.375 -67.484375 C 78.3125 -66.929688 64.90625 -63.851562 53.15625 -58.25 C 41.40625 -52.644531 35.53125 -44.0625 35.53125 -32.5 C 35.53125 -25.707031 37.546875 -20.472656 41.578125 -16.796875 C 45.617188 -13.128906 50.765625 -11.296875 57.015625 -11.296875 Z M 57.015625 -11.296875 "/></g></g></g></svg>